<svg width="173" height="36" viewBox="0 0 173 36" fill="none" xmlns="http://www.w3.org/2000/svg">
<g clip-path="url(#clip0_4144_103116)">
<path d="M24.0615 22.875L25.9534 27.3131L29.214 31.7981C29.7184 31.5075 30.1478 31.0856 30.4496 30.5625L33.9146 24.5625C34.2165 24.0413 34.3665 23.4581 34.3665 22.875L29.0453 22.3125L24.0615 22.875Z" fill="#EA4335"/>
<path d="M12.1963 3.94313C12.2019 3.93938 12.2057 3.93376 12.2113 3.93001C12.2057 3.93376 12.2019 3.93938 12.1963 3.94313Z" fill="#00832D"/>
<path d="M12.5246 3.66562C12.519 3.67124 12.5115 3.67499 12.5059 3.67874C12.5115 3.67499 12.519 3.67124 12.5246 3.66562Z" fill="#00832D"/>
<path d="M11.9229 4.24124C11.9247 4.23936 11.9266 4.23749 11.9285 4.23561C11.9266 4.23749 11.9247 4.23936 11.9229 4.24124Z" fill="#00832D"/>
<path d="M23.1518 3.45187C22.6474 3.16125 22.068 3 21.4643 3H14.5361C13.9361 3 13.3511 3.165 12.8486 3.45187L14.8099 8.01L17.9861 12.3488L17.9993 12.375L21.2018 7.98938L23.1518 3.45187Z" fill="#00832D"/>
<path d="M11.9379 22.875L6.62602 22.125L1.63477 22.875C1.63477 23.4562 1.78477 24.0375 2.08477 24.5606L5.54977 30.5625C5.85164 31.0837 6.28102 31.5056 6.78539 31.7981L9.98977 27.5456L11.9379 22.875Z" fill="#0066DA"/>
<path d="M29.1506 12.9375L24.3881 4.68751C24.0863 4.16439 23.6569 3.74251 23.1525 3.45189L18 12.375L24.0619 22.875H34.365C34.365 22.2919 34.215 21.7106 33.9131 21.1875L29.1506 12.9375Z" fill="#FFBA00"/>
<path d="M24.0614 22.875H11.9377L6.78516 31.7981C7.28953 32.0887 7.86891 32.25 8.47266 32.25H27.5245C28.1283 32.25 28.7077 32.0887 29.212 31.7981L24.0614 22.875Z" fill="#2684FC"/>
<path d="M24.0614 22.875H11.9377L6.78516 31.7981C7.28953 32.0887 7.86891 32.25 8.47266 32.25H27.5245C28.1283 32.25 28.7077 32.0887 29.212 31.7981L24.0614 22.875Z" fill="#2684FC"/>
<path d="M17.9998 12.375L12.8491 3.45189C12.3448 3.74251 11.9173 4.16251 11.6154 4.68376L2.08477 21.1931C1.78477 21.7144 1.63477 22.2956 1.63477 22.875H11.9379L17.9998 12.375Z" fill="#00AC47"/>
</g>
<path d="M53.042 16.964H60.72C60.7493 17.1547 60.7787 17.36 60.808 17.58C60.8373 17.7853 60.852 18.0053 60.852 18.24C60.852 19.1787 60.7053 20.11 60.412 21.034C60.1187 21.958 59.62 22.7793 58.916 23.498C58.1973 24.246 57.354 24.8253 56.386 25.236C55.418 25.6467 54.3107 25.852 53.064 25.852C51.9347 25.852 50.864 25.6467 49.852 25.236C48.8547 24.8253 47.982 24.2533 47.234 23.52C46.486 22.7867 45.892 21.9213 45.452 20.924C45.0267 19.912 44.814 18.812 44.814 17.624C44.814 16.436 45.0267 15.3433 45.452 14.346C45.892 13.334 46.486 12.4613 47.234 11.728C47.982 10.9947 48.8547 10.4227 49.852 10.012C50.864 9.60133 51.9347 9.396 53.064 9.396C54.2667 9.396 55.374 9.60867 56.386 10.034C57.4127 10.4593 58.2707 11.0533 58.96 11.816L57.222 13.554C56.7087 12.982 56.1 12.542 55.396 12.234C54.7067 11.926 53.922 11.772 53.042 11.772C52.294 11.772 51.5753 11.9113 50.886 12.19C50.1967 12.4687 49.588 12.8647 49.06 13.378C48.532 13.8767 48.114 14.4853 47.806 15.204C47.498 15.9227 47.344 16.7293 47.344 17.624C47.344 18.5187 47.498 19.3253 47.806 20.044C48.114 20.7627 48.532 21.3787 49.06 21.892C49.588 22.3907 50.1967 22.7793 50.886 23.058C51.5753 23.3367 52.3013 23.476 53.064 23.476C54.076 23.476 54.89 23.322 55.506 23.014C56.1367 22.706 56.6647 22.3467 57.09 21.936C57.398 21.6427 57.6693 21.2613 57.904 20.792C58.1387 20.308 58.2927 19.78 58.366 19.208H53.042V16.964ZM67.947 14.368C68.7683 14.368 69.5237 14.5147 70.213 14.808C70.9023 15.0867 71.4963 15.4827 71.995 15.996C72.4937 16.5093 72.8823 17.118 73.161 17.822C73.4397 18.526 73.579 19.2887 73.579 20.11C73.579 20.9313 73.4397 21.694 73.161 22.398C72.8823 23.102 72.4937 23.7107 71.995 24.224C71.4963 24.7373 70.9023 25.1407 70.213 25.434C69.5237 25.7127 68.7683 25.852 67.947 25.852C67.1257 25.852 66.3703 25.7127 65.681 25.434C64.9917 25.1407 64.3977 24.7373 63.899 24.224C63.4003 23.7107 63.0117 23.102 62.733 22.398C62.4543 21.694 62.315 20.9313 62.315 20.11C62.315 19.2887 62.4543 18.526 62.733 17.822C63.0117 17.118 63.4003 16.5093 63.899 15.996C64.3977 15.4827 64.9917 15.0867 65.681 14.808C66.3703 14.5147 67.1257 14.368 67.947 14.368ZM67.947 23.586C68.3577 23.586 68.7537 23.5053 69.135 23.344C69.5163 23.1827 69.8537 22.9553 70.147 22.662C70.455 22.3687 70.697 22.0093 70.873 21.584C71.049 21.144 71.137 20.6527 71.137 20.11C71.137 19.5673 71.049 19.0833 70.873 18.658C70.697 18.218 70.455 17.8513 70.147 17.558C69.8537 17.2647 69.5163 17.0373 69.135 16.876C68.7537 16.7147 68.3577 16.634 67.947 16.634C67.5363 16.634 67.1403 16.7147 66.759 16.876C66.3777 17.0373 66.033 17.2647 65.725 17.558C65.4317 17.8513 65.197 18.218 65.021 18.658C64.845 19.0833 64.757 19.5673 64.757 20.11C64.757 20.6527 64.845 21.144 65.021 21.584C65.197 22.0093 65.4317 22.3687 65.725 22.662C66.033 22.9553 66.3777 23.1827 66.759 23.344C67.1403 23.5053 67.5363 23.586 67.947 23.586ZM80.5327 14.368C81.3541 14.368 82.1094 14.5147 82.7987 14.808C83.4881 15.0867 84.0821 15.4827 84.5807 15.996C85.0794 16.5093 85.4681 17.118 85.7467 17.822C86.0254 18.526 86.1647 19.2887 86.1647 20.11C86.1647 20.9313 86.0254 21.694 85.7467 22.398C85.4681 23.102 85.0794 23.7107 84.5807 24.224C84.0821 24.7373 83.4881 25.1407 82.7987 25.434C82.1094 25.7127 81.3541 25.852 80.5327 25.852C79.7114 25.852 78.9561 25.7127 78.2667 25.434C77.5774 25.1407 76.9834 24.7373 76.4847 24.224C75.9861 23.7107 75.5974 23.102 75.3187 22.398C75.0401 21.694 74.9007 20.9313 74.9007 20.11C74.9007 19.2887 75.0401 18.526 75.3187 17.822C75.5974 17.118 75.9861 16.5093 76.4847 15.996C76.9834 15.4827 77.5774 15.0867 78.2667 14.808C78.9561 14.5147 79.7114 14.368 80.5327 14.368ZM80.5327 23.586C80.9434 23.586 81.3394 23.5053 81.7207 23.344C82.1021 23.1827 82.4394 22.9553 82.7327 22.662C83.0407 22.3687 83.2827 22.0093 83.4587 21.584C83.6347 21.144 83.7227 20.6527 83.7227 20.11C83.7227 19.5673 83.6347 19.0833 83.4587 18.658C83.2827 18.218 83.0407 17.8513 82.7327 17.558C82.4394 17.2647 82.1021 17.0373 81.7207 16.876C81.3394 16.7147 80.9434 16.634 80.5327 16.634C80.1221 16.634 79.7261 16.7147 79.3447 16.876C78.9634 17.0373 78.6187 17.2647 78.3107 17.558C78.0174 17.8513 77.7827 18.218 77.6067 18.658C77.4307 19.0833 77.3427 19.5673 77.3427 20.11C77.3427 20.6527 77.4307 21.144 77.6067 21.584C77.7827 22.0093 78.0174 22.3687 78.3107 22.662C78.6187 22.9553 78.9634 23.1827 79.3447 23.344C79.7261 23.5053 80.1221 23.586 80.5327 23.586ZM92.9865 30.604C92.2385 30.604 91.5711 30.5013 90.9845 30.296C90.4125 30.1053 89.9138 29.856 89.4885 29.548C89.0631 29.24 88.7111 28.8953 88.4325 28.514C88.1685 28.1327 87.9705 27.766 87.8385 27.414L90.1705 26.468C90.3758 27.04 90.7278 27.502 91.2265 27.854C91.7251 28.2207 92.3118 28.404 92.9865 28.404C93.9985 28.404 94.7831 28.096 95.3405 27.48C95.9125 26.864 96.1985 26.0133 96.1985 24.928V24.048H96.0665C95.7291 24.532 95.2598 24.9353 94.6585 25.258C94.0718 25.5807 93.3825 25.742 92.5905 25.742C91.9305 25.742 91.2925 25.6027 90.6765 25.324C90.0605 25.0453 89.5105 24.6567 89.0265 24.158C88.5571 23.6593 88.1831 23.058 87.9045 22.354C87.6258 21.65 87.4865 20.88 87.4865 20.044C87.4865 19.208 87.6258 18.4453 87.9045 17.756C88.1831 17.052 88.5571 16.4507 89.0265 15.952C89.5105 15.4533 90.0605 15.0647 90.6765 14.786C91.2925 14.5073 91.9305 14.368 92.5905 14.368C93.3825 14.368 94.0718 14.5293 94.6585 14.852C95.2598 15.1747 95.7291 15.578 96.0665 16.062H96.1985V14.72H98.5525V24.884C98.5525 25.808 98.4058 26.622 98.1125 27.326C97.8338 28.0447 97.4451 28.646 96.9465 29.13C96.4625 29.614 95.8758 29.9807 95.1865 30.23C94.5118 30.4793 93.7785 30.604 92.9865 30.604ZM93.0745 23.476C93.4705 23.476 93.8591 23.4027 94.2405 23.256C94.6218 23.1093 94.9518 22.8893 95.2305 22.596C95.5238 22.3027 95.7585 21.9433 95.9345 21.518C96.1105 21.0927 96.1985 20.6013 96.1985 20.044C96.1985 19.5013 96.1105 19.0173 95.9345 18.592C95.7585 18.152 95.5238 17.7927 95.2305 17.514C94.9518 17.2207 94.6218 17.0007 94.2405 16.854C93.8591 16.6927 93.4705 16.612 93.0745 16.612C92.6638 16.612 92.2678 16.6927 91.8865 16.854C91.5198 17.0007 91.1898 17.2207 90.8965 17.514C90.6031 17.8073 90.3685 18.1667 90.1925 18.592C90.0165 19.0173 89.9285 19.5013 89.9285 20.044C89.9285 20.5867 90.0165 21.0707 90.1925 21.496C90.3685 21.9213 90.6031 22.2807 90.8965 22.574C91.1898 22.8673 91.5198 23.0947 91.8865 23.256C92.2678 23.4027 92.6638 23.476 93.0745 23.476ZM101.096 25.5V9.748H103.538V25.5H101.096ZM115.957 22.926C115.503 23.762 114.857 24.4587 114.021 25.016C113.185 25.5733 112.159 25.852 110.941 25.852C110.135 25.852 109.387 25.7127 108.697 25.434C108.023 25.1407 107.436 24.7373 106.937 24.224C106.439 23.7107 106.05 23.1093 105.771 22.42C105.493 21.716 105.353 20.946 105.353 20.11C105.353 19.3327 105.485 18.5993 105.749 17.91C106.013 17.206 106.38 16.5973 106.849 16.084C107.333 15.556 107.913 15.138 108.587 14.83C109.262 14.522 110.01 14.368 110.831 14.368C111.667 14.368 112.408 14.5073 113.053 14.786C113.713 15.0647 114.271 15.4533 114.725 15.952C115.18 16.4507 115.525 17.052 115.759 17.756C116.009 18.46 116.133 19.23 116.133 20.066C116.133 20.1393 116.133 20.2053 116.133 20.264C116.119 20.3373 116.111 20.4033 116.111 20.462C116.097 20.5207 116.089 20.5793 116.089 20.638H107.795C107.839 21.1513 107.964 21.5987 108.169 21.98C108.375 22.3613 108.624 22.6767 108.917 22.926C109.225 23.1753 109.563 23.3587 109.929 23.476C110.296 23.5933 110.655 23.652 111.007 23.652C111.711 23.652 112.291 23.4833 112.745 23.146C113.2 22.8087 113.574 22.3907 113.867 21.892L115.957 22.926ZM113.691 18.768C113.662 18.548 113.589 18.306 113.471 18.042C113.369 17.7633 113.2 17.514 112.965 17.294C112.745 17.0593 112.452 16.8613 112.085 16.7C111.733 16.5387 111.301 16.458 110.787 16.458C110.083 16.458 109.475 16.6707 108.961 17.096C108.463 17.5067 108.125 18.064 107.949 18.768H113.691ZM123.329 25.5V9.748H128.147C130.552 9.748 132.481 10.474 133.933 11.926C135.399 13.378 136.133 15.2773 136.133 17.624C136.133 19.9853 135.399 21.892 133.933 23.344C132.481 24.7813 130.552 25.5 128.147 25.5H123.329ZM125.353 11.684V23.564H128.147C129.98 23.564 131.425 23.0433 132.481 22.002C133.537 20.946 134.065 19.4867 134.065 17.624C134.065 15.776 133.537 14.324 132.481 13.268C131.425 12.212 129.98 11.684 128.147 11.684H125.353ZM139.864 25.5H137.84V14.72H139.776V16.48H139.864C140.069 15.908 140.487 15.424 141.118 15.028C141.763 14.6173 142.394 14.412 143.01 14.412C143.596 14.412 144.095 14.5 144.506 14.676L143.89 16.634C143.64 16.5313 143.244 16.48 142.702 16.48C141.939 16.48 141.272 16.788 140.7 17.404C140.142 18.02 139.864 18.7387 139.864 19.56V25.5ZM148.532 11.002C148.532 11.398 148.392 11.7353 148.114 12.014C147.835 12.2927 147.498 12.432 147.102 12.432C146.706 12.432 146.368 12.2927 146.09 12.014C145.811 11.7353 145.672 11.398 145.672 11.002C145.672 10.606 145.811 10.2687 146.09 9.99C146.368 9.71133 146.706 9.572 147.102 9.572C147.498 9.572 147.835 9.71133 148.114 9.99C148.392 10.2687 148.532 10.606 148.532 11.002ZM148.114 14.72V25.5H146.09V14.72H148.114ZM156.065 25.5H154.041L149.685 14.72H151.885L155.053 23.08H155.097L158.309 14.72H160.465L156.065 25.5ZM166.386 25.852C164.802 25.852 163.497 25.3093 162.47 24.224C161.443 23.1387 160.93 21.7673 160.93 20.11C160.93 18.4673 161.429 17.1033 162.426 16.018C163.423 14.918 164.699 14.368 166.254 14.368C167.853 14.368 169.121 14.8887 170.06 15.93C171.013 16.9567 171.49 18.4013 171.49 20.264L171.468 20.484H162.998C163.027 21.54 163.379 22.3907 164.054 23.036C164.729 23.6813 165.535 24.004 166.474 24.004C167.765 24.004 168.777 23.3587 169.51 22.068L171.314 22.948C170.83 23.8573 170.155 24.5687 169.29 25.082C168.439 25.5953 167.471 25.852 166.386 25.852ZM163.152 18.812H169.334C169.275 18.064 168.967 17.448 168.41 16.964C167.867 16.4653 167.134 16.216 166.21 16.216C165.447 16.216 164.787 16.4507 164.23 16.92C163.687 17.3893 163.328 18.02 163.152 18.812Z" fill="#5F6368"/>
<defs>
<clipPath id="clip0_4144_103116">
<rect width="36" height="36" fill="white"/>
</clipPath>
</defs>
</svg>
